HIERARCHY
ROOT Hips
{
 OFFSET 0.000000 0.000000 0.000000
 CHANNELS 6 Xposition Yposition Zposition Yrotation Xrotation Zrotation
 JOINT Chest
 {
  OFFSET 0.000000 9.585900 0.002600
  CHANNELS 3 Yrotation Xrotation Zrotation
  JOINT Chest2
  {
   OFFSET 0.000000 9.601200 -0.005300
   CHANNELS 3 Yrotation Xrotation Zrotation
   JOINT Chest3
   {
    OFFSET 0.000000 9.561800 0.000000
    CHANNELS 3 Yrotation Xrotation Zrotation
    JOINT Chest4
    {
     OFFSET 0.000000 9.552100 0.000000
     CHANNELS 3 Yrotation Xrotation Zrotation
     JOINT Neck
     {
      OFFSET 0.000000 14.453000 0.000000
      CHANNELS 3 Yrotation Xrotation Zrotation
      JOINT Head
      {
       OFFSET 0.000000 8.936500 -0.011300
       CHANNELS 3 Yrotation Xrotation Zrotation
       End Site
       {
        OFFSET 0.000000 17.073600 -0.006000
       }
      }
     }
     JOINT RightCollar
     {
      OFFSET -2.921100 9.558500 0.000000
      CHANNELS 3 Yrotation Xrotation Zrotation
      JOINT RightShoulder
      {
       OFFSET -13.519700 0.000000 0.000000
       CHANNELS 3 Yrotation Xrotation Zrotation
       JOINT RightElbow
       {
        OFFSET 0.000000 -29.696600 0.000000
        CHANNELS 3 Yrotation Xrotation Zrotation
        JOINT RightWrist
        {
         OFFSET 0.000000 -24.004700 0.000000
         CHANNELS 3 Yrotation Xrotation Zrotation
         End Site
         {
          OFFSET 0.000000 -17.728500 0.000000
         }
        }
       }
      }
     }
     JOINT LeftCollar
     {
      OFFSET 2.921100 9.558500 0.000000
      CHANNELS 3 Yrotation Xrotation Zrotation
      JOINT LeftShoulder
      {
       OFFSET 13.519700 0.000000 0.000000
       CHANNELS 3 Yrotation Xrotation Zrotation
       JOINT LeftElbow
       {
        OFFSET 0.000000 -29.696600 0.000000
        CHANNELS 3 Yrotation Xrotation Zrotation
        JOINT LeftWrist
        {
         OFFSET 0.000000 -24.004700 0.000000
         CHANNELS 3 Yrotation Xrotation Zrotation
         End Site
         {
          OFFSET 0.000000 -17.728500 0.000000
         }
        }
       }
      }
     }
    }
   }
  }
 }
 JOINT RightHip
 {
  OFFSET -7.771700 -0.012900 -0.001300
  CHANNELS 3 Yrotation Xrotation Zrotation
  JOINT RightKnee
  {
   OFFSET 0.000000 -40.869800 0.001200
   CHANNELS 3 Yrotation Xrotation Zrotation
   JOINT RightAnkle
   {
    OFFSET 0.000000 -39.717900 0.002100
    CHANNELS 3 Yrotation Xrotation Zrotation
    JOINT RightToe
    {
     OFFSET 0.000000 -4.965400 11.033500
     CHANNELS 3 Yrotation Xrotation Zrotation
     End Site
     {
      OFFSET 0.000000 -1.423100 5.872300
     }
    }
   }
  }
 }
 JOINT LeftHip
 {
  OFFSET 7.771700 -0.012900 -0.001300
  CHANNELS 3 Yrotation Xrotation Zrotation
  JOINT LeftKnee
  {
   OFFSET 0.000000 -40.869800 0.001200
   CHANNELS 3 Yrotation Xrotation Zrotation
   JOINT LeftAnkle
   {
    OFFSET 0.000000 -39.717900 0.002100
    CHANNELS 3 Yrotation Xrotation Zrotation
    JOINT LeftToe
    {
     OFFSET 0.000000 -4.965400 11.033500
     CHANNELS 3 Yrotation Xrotation Zrotation
     End Site
     {
      OFFSET 0.000000 -1.423100 5.872300
     }
    }
   }
  }
 }
}
MOTION
Frames: 12
Frame Time: 0.008333
0.000000 85.388000 0.000000 0.000000 -5.767877 0.000000 0.000000 11.653817 0.000000 0.000000 -5.885947 0.000000 0.000000 -0.000000 0.000000 0.000000 -0.000000 0.000000 0.000000 12.528835 0.000000 0.000000 0.711642 0.000000 0.000000 -0.000000 0.000000 0.000000 0.000000 -90.000000 0.000000 -2.309062 0.000000 0.000000 2.309062 0.000000 0.000000 -0.000000 0.000000 0.000000 -0.000000 90.000000 0.000000 -2.309062 0.000000 0.000000 2.309062 0.000000 0.000000 8.520406 0.000000 0.000000 1.905762 0.000000 -0.000000 -4.658285 0.000000 0.000000 -0.000000 0.000000 0.000000 8.520406 0.000000 0.000000 1.905762 0.000000 -0.000000 -4.658285 0.000000 0.000000 -0.000000 0.000000
-198.474565 58.042267 28.201904 172.430244 -49.478527 -3.257165 5.460750 22.314173 3.292767 2.814511 12.805715 1.650396 3.623155 15.968011 2.182651 2.817798 12.826175 1.658079 2.177543 18.109528 4.275091 2.468385 -2.198091 7.090205 1.720583 5.090435 0.976043 0.325399 -13.628664 -8.822695 -83.335982 -57.334352 124.415250 -1.634920 3.068862 -27.652872 -9.911637 2.128670 -1.065253 3.495684 -11.029724 12.515705 75.007979 -52.782620 -122.278252 9.550569 -8.416983 16.743243 4.113205 -22.994435 -0.026531 -38.560041 73.327233 -40.022884 5.689124 -12.859509 9.394834 0.039004 -0.196702 0.019008 -2.379043 -21.643179 11.409646 52.101718 79.515862 51.586994 4.451921 -15.879697 -16.201205 0.039557 0.123319 0.014097
-198.473966 58.038739 28.198472 172.446013 -49.444972 -3.269816 5.459761 22.282044 3.297468 2.812928 12.788128 1.651168 3.627876 15.952419 2.182090 2.811316 12.810318 1.658428 2.127051 18.117422 4.245195 2.314374 -2.185929 7.082068 1.736715 5.095731 1.006359 0.656556 -13.622433 -8.998313 -83.182140 -57.385480 124.225384 -1.303537 3.862558 -26.954103 -9.924851 2.109034 -1.103533 3.080066 -11.030499 12.714332 74.715534 -52.811078 -122.131010 9.390263 -7.898995 16.563242 4.103451 -23.028463 -0.028962 -38.569185 73.330728 -40.032614 5.700674 -12.859539 9.390358 0.026895 -0.198303 0.020558 -2.389802 -21.677358 11.416999 52.116935 79.524493 51.602347 4.445187 -15.891357 -16.202151 0.044622 0.127638 0.017697
-198.474557 58.037860 28.191353 172.452864 -49.432944 -3.267033 5.464073 22.275650 3.296318 2.823058 12.770636 1.652772 3.619796 15.949568 2.184606 2.826781 12.770989 1.654576 1.964863 18.122293 4.208183 2.180474 -2.158298 7.090574 1.725479 5.118816 1.034982 0.974872 -13.621309 -9.161820 -83.135372 -57.481680 124.123600 -0.935893 4.648398 -26.199048 -9.959291 2.080627 -1.139783 2.677436 -11.019178 12.913291 74.369939 -52.822749 -121.968757 9.262656 -7.404467 16.387757 4.103765 -23.040090 -0.037762 -38.582916 73.342409 -40.054915 5.702080 -12.869613 9.400644 0.014123 -0.199403 0.016149 -2.388681 -21.688355 11.413522 52.114280 79.530639 51.600354 4.438189 -15.892810 -16.201273 0.048998 0.123708 0.019504
-198.475177 58.036908 28.183479 172.454819 -49.420946 -3.261955 5.472533 22.270787 3.298119 2.812909 12.762971 1.648501 3.632545 15.938604 2.189258 2.827622 12.762677 1.655824 1.877907 18.125304 4.194040 1.923441 -2.163271 7.114107 1.784910 5.021934 1.081303 1.216893 -13.527992 -9.342265 -83.208912 -57.632615 124.126116 -0.521701 5.434374 -25.388977 -9.979514 2.033913 -1.165197 2.293140 -11.026829 13.094709 73.969758 -52.814456 -121.787613 9.171749 -6.959156 16.203725 4.106480 -23.056872 -0.041274 -38.631817 73.355267 -40.109126 5.686767 -12.873037 9.404001 0.018307 -0.206249 0.018845 -2.376070 -21.698157 11.410971 52.083420 79.536577 51.576606 4.430862 -15.897174 -16.200049 0.053252 0.124098 0.022241
-198.475574 58.035500 28.175636 172.462443 -49.405604 -3.265694 5.479342 22.260076 3.305311 2.813828 12.759580 1.649755 3.635008 15.920988 2.191693 2.829043 12.753361 1.657691 1.705873 18.123435 4.179469 1.686488 -2.145905 7.138431 1.821897 4.953883 1.110645 1.453347 -13.454536 -9.499757 -83.407114 -57.842973 124.238121 -0.052472 6.230161 -24.523374 -10.002239 1.991781 -1.189750 1.917865 -11.036823 13.273989 73.516460 -52.781041 -121.578624 9.117290 -6.585412 16.008909 4.101792 -23.075684 -0.037410 -38.691225 73.367013 -40.177778 5.687508 -12.885522 9.402968 0.024746 -0.205371 0.020131 -2.377117 -21.713353 11.412517 52.138153 79.548462 51.630874 4.432877 -15.912944 -16.199712 0.053247 0.127463 0.023572
-198.480049 58.034152 28.166803 172.483668 -49.392510 -3.258881 5.469332 22.249938 3.290880 2.813297 12.754511 1.651023 3.629660 15.915359 2.190913 2.839905 12.729031 1.660336 1.510574 18.126289 4.169573 1.417569 -2.114905 7.172437 1.843179 4.912342 1.131185 1.682476 -13.400635 -9.640441 -83.725684 -58.113302 124.457615 0.470316 7.037166 -23.612094 -10.025163 1.961188 -1.213857 1.546434 -11.053248 13.451775 73.022962 -52.720660 -121.346249 9.098441 -6.285597 15.808400 4.099893 -23.088256 -0.056721 -38.794662 73.375844 -40.303026 5.705941 -12.913074 9.423502 0.010035 -0.205106 0.018601 -2.381252 -21.726546 11.388676 52.169913 79.554300 51.662302 4.429269 -15.920153 -16.200800 0.070511 0.128420 0.028449
-198.482695 58.031881 28.159437 172.498104 -49.372528 -3.263757 5.468782 22.228049 3.293190 2.818372 12.746233 1.654463 3.620703 15.914130 2.189788 2.848389 12.698864 1.664452 1.329480 18.140290 4.164200 1.087307 -2.080463 7.221361 1.859836 4.882416 1.144952 1.898717 -13.358325 -9.769215 -84.155315 -58.434934 124.780050 1.028235 7.853119 -22.674412 -10.047473 1.940327 -1.237870 1.191587 -11.076093 13.624217 72.503979 -52.638253 -121.109306 9.106444 -6.037370 15.616261 4.095462 -23.107112 -0.063858 -38.835514 73.378897 -40.348489 5.709267 -12.923085 9.424790 0.008051 -0.204127 0.022409 -2.384893 -21.746746 11.381925 52.187189 79.558466 51.683223 4.426954 -15.926701 -16.201041 0.070371 0.131246 0.029973
-198.484565 58.029168 28.153147 172.505338 -49.349786 -3.273864 5.473202 22.201524 3.303757 2.820995 12.734469 1.657780 3.633237 15.871979 2.199282 2.837311 12.708977 1.665810 1.133966 18.158979 4.159709 0.730529 -2.036204 7.276485 1.868515 4.860018 1.151052 2.108408 -13.332018 -9.889084 -84.671848 -58.792541 125.186553 1.605533 8.672518 -21.730058 -10.069283 1.924581 -1.261250 0.868800 -11.104143 13.790797 71.970888 -52.535208 -120.885903 9.124523 -5.810375 15.448063 4.094017 -23.129753 -0.060601 -38.857213 73.379883 -40.368915 5.713010 -12.928602 9.420811 0.013067 -0.201241 0.025428 -2.385774 -21.770959 11.385952 52.207113 79.562670 51.710724 4.417469 -15.931081 -16.199725 0.073467 0.131433 0.030511
-198.488218 58.027210 28.146591 172.517176 -49.333434 -3.281889 5.473940 22.179083 3.310079 2.831752 12.707643 1.667877 3.626242 15.861492 2.200165 2.832581 12.704638 1.667837 0.926717 18.181438 4.157464 0.351834 -1.983854 7.339414 1.863527 4.873450 1.152773 2.320179 -13.358173 -10.008127 -85.253135 -59.176618 125.656165 2.198894 9.486200 -20.790336 -10.093524 1.913575 -1.283191 0.577049 -11.138408 13.955080 71.441314 -52.414020 -120.681297 9.139600 -5.583062 15.308983 4.100078 -23.143295 -0.062458 -38.882720 73.382021 -40.390780 5.697428 -12.937605 9.422666 0.016978 -0.193635 0.022658 -2.387961 -21.789046 11.382694 52.231067 79.571274 51.738334 4.417912 -15.938292 -16.196242 0.072282 0.132696 0.030165
-198.496028 58.025414 28.139899 172.532410 -49.319406 -3.272424 5.467464 22.160172 3.295813 2.820170 12.709698 1.665279 3.633334 15.840436 2.203460 2.836116 12.684718 1.671105 0.709252 18.207278 4.159220 -0.046577 -1.924079 7.412749 1.847875 4.845629 1.156112 2.529231 -13.365490 -10.130760 -85.871738 -59.565403 126.166874 2.810412 10.296080 -19.861197 -10.115002 1.930726 -1.297896 0.293991 -11.200079 14.113330 70.934204 -52.285061 -120.490070 9.145002 -5.341463 15.193591 4.104540 -23.154707 -0.083484 -38.874623 73.396584 -40.405549 5.690764 -12.950331 9.445190 0.003865 -0.194275 0.020133 -2.370142 -21.807564 11.348455 52.253136 79.572058 51.772343 4.420683 -15.944079 -16.187931 0.067477 0.134141 0.028288
-198.501587 58.023711 28.134618 172.546075 -49.304360 -3.280062 5.469104 22.143703 3.297943 2.820293 12.692559 1.669116 3.632513 15.830567 2.206586 2.830398 12.690750 1.673163 0.490509 18.218749 4.165123 -0.459205 -1.856567 7.496368 1.818468 4.805034 1.157514 2.749469 -13.403601 -10.256283 -86.477242 -59.927392 126.678170 3.452200 11.102553 -18.945299 -10.131882 1.925399 -1.308426 0.014638 -11.255964 14.274041 70.454519 -52.155632 -120.301698 9.133049 -5.082360 15.087761 4.108466 -23.166270 -0.084588 -38.881035 73.397977 -40.421404 5.688634 -12.957370 9.459437 -0.002936 -0.192612 0.020214 -2.371560 -21.824157 11.339452 52.280873 79.570622 51.805112 4.417823 -15.945924 -16.184719 0.067303 0.133760 0.027693
